<svg width="32" height="40" viewBox="0 0 32 40" fill="none" xmlns="http://www.w3.org/2000/svg">
<path d="M21.684 30.891C21.6478 31.3408 21.7895 31.7869 22.0789 32.1333C22.3682 32.4797 22.7819 32.6986 23.231 32.743C23.6627 32.6624 24.0527 32.4333 24.3332 32.0954C24.6138 31.7575 24.7674 31.3322 24.7674 30.893C24.7674 30.4538 24.6138 30.0285 24.3332 29.6906C24.0527 29.3527 23.6627 29.1236 23.231 29.043C22.7827 29.0874 22.3696 29.3058 22.0803 29.6513C21.7911 29.9968 21.6489 30.4418 21.684 30.891ZM23.779 30.891C23.779 31.391 23.49 31.743 23.231 31.743C22.972 31.743 22.684 31.393 22.684 30.891C22.684 30.389 22.973 30.039 23.231 30.039C23.489 30.039 23.779 30.389 23.779 30.891ZM21.743 34.426C21.9451 34.0751 22.0305 33.6691 21.987 33.2666C21.9435 32.864 21.7733 32.4856 21.501 32.186C21.3673 32.0346 21.1993 31.9175 21.011 31.8444C20.8227 31.7714 20.6196 31.7445 20.4188 31.7662C20.218 31.7878 20.0254 31.8573 19.857 31.9688C19.6886 32.0803 19.5493 32.2306 19.451 32.407C19.2444 32.7564 19.1583 33.1639 19.206 33.567C19.2223 33.9505 19.3776 34.3149 19.643 34.5923C19.9084 34.8696 20.2656 35.0408 20.648 35.074C20.69 35.074 20.732 35.074 20.775 35.068C20.9748 35.0425 21.1661 34.9713 21.3339 34.86C21.5018 34.7486 21.6418 34.6001 21.743 34.426ZM20.2 33.46C20.1756 33.2775 20.2107 33.092 20.3 32.931C20.3225 32.888 20.3541 32.8504 20.3926 32.8208C20.4311 32.7913 20.4756 32.7705 20.523 32.76H20.545C20.6353 32.7691 20.7187 32.8124 20.778 32.881C20.9003 33.0184 20.9747 33.1917 20.99 33.375C21.0143 33.5575 20.9792 33.743 20.89 33.904C20.8675 33.9469 20.8359 33.9843 20.7973 34.0137C20.7588 34.0431 20.7143 34.0637 20.667 34.074C20.489 34.09 20.241 33.835 20.2 33.46ZM25.479 30.891C25.5323 31.1852 25.6683 31.458 25.8711 31.6776C26.0739 31.8972 26.3351 32.0544 26.6242 32.1308C26.9132 32.2072 27.2179 32.1996 27.5028 32.1089C27.7876 32.0182 28.0407 31.8482 28.2323 31.6188C28.424 31.3894 28.5462 31.1101 28.5848 30.8136C28.6233 30.5172 28.5765 30.2159 28.4499 29.9451C28.3233 29.6743 28.1221 29.4453 27.8699 29.2848C27.6177 29.1243 27.3249 29.039 27.026 29.039C26.5769 29.0834 26.1632 29.3023 25.8739 29.6487C25.5845 29.9951 25.4428 30.4412 25.479 30.891ZM27.573 30.891C27.573 31.391 27.285 31.743 27.026 31.743C26.767 31.743 26.479 31.393 26.479 30.891C26.479 30.389 26.767 30.039 27.026 30.039C27.285 30.039 27.573 30.389 27.573 30.891ZM30.694 32.249C30.5905 32.1158 30.4615 32.0045 30.3145 31.9216C30.1676 31.8386 30.0056 31.7858 29.838 31.766C29.4314 31.7577 29.038 31.9109 28.7441 32.192C28.4502 32.4732 28.2797 32.8594 28.27 33.266C28.196 33.6651 28.2817 34.0774 28.5085 34.414C28.7354 34.7506 29.0853 34.9848 29.483 35.066C29.525 35.07 29.567 35.072 29.609 35.072C29.9916 35.0392 30.3491 34.8681 30.6145 34.5907C30.8799 34.3133 31.0351 33.9486 31.051 33.565C31.1092 33.0965 30.981 32.6239 30.694 32.249ZM29.594 34.073C29.407 34.053 29.228 33.75 29.268 33.373C29.308 32.996 29.548 32.739 29.735 32.759C29.8096 32.7722 29.8761 32.8143 29.92 32.876C30.0398 33.0452 30.0902 33.2538 30.061 33.459C30.016 33.835 29.774 34.088 29.59 34.073H29.594ZM28.445 35.452C28.2682 35.3086 28.1097 35.1441 27.973 34.962C27.115 33.602 26.159 32.912 25.132 32.912C24.105 32.912 23.15 33.602 22.293 34.962C22.1557 35.1438 21.9969 35.3083 21.82 35.452C21.3661 35.7482 21.0276 36.1913 20.8613 36.7072C20.6949 37.223 20.7107 37.7804 20.906 38.286C21.014 38.6797 21.2239 39.038 21.5147 39.3245C21.8055 39.6111 22.1668 39.8158 22.562 39.918C22.7149 39.9526 22.8712 39.9701 23.028 39.97C23.4911 39.9829 23.9413 39.8167 24.285 39.506C24.5132 39.2858 24.8179 39.1627 25.135 39.1627C25.4521 39.1627 25.7568 39.2858 25.985 39.506C26.3287 39.8167 26.7789 39.9829 27.242 39.97C27.3991 39.97 27.5558 39.9526 27.709 39.918C28.1042 39.8156 28.4654 39.6108 28.7561 39.3243C29.0468 39.0378 29.2569 38.6796 29.365 38.286C29.5596 37.7793 29.5739 37.2211 29.4057 36.7051C29.2375 36.1891 28.8968 35.7466 28.441 35.452H28.445ZM28.416 37.952C28.3594 38.1839 28.2434 38.3971 28.0795 38.5707C27.9155 38.7442 27.7093 38.8722 27.481 38.942C27.3452 38.9785 27.2029 38.9843 27.0646 38.959C26.9262 38.9338 26.7952 38.8781 26.681 38.796C26.266 38.3923 25.7099 38.1665 25.131 38.1665C24.5521 38.1665 23.996 38.3923 23.581 38.796C23.4669 38.8783 23.3359 38.9341 23.1975 38.9594C23.0591 38.9846 22.9168 38.9787 22.781 38.942C22.5526 38.8723 22.3462 38.7443 22.1821 38.5708C22.018 38.3972 21.9019 38.184 21.845 37.952C21.527 37.052 21.928 36.693 22.483 36.195C22.7316 35.9931 22.9507 35.7575 23.134 35.495C23.59 34.773 24.306 33.912 25.128 33.912C25.95 33.912 26.668 34.773 27.123 35.495C27.3066 35.7573 27.5257 35.9929 27.774 36.195C28.329 36.694 28.73 37.053 28.412 37.953L28.416 37.952ZM7.30001 19.485C7.08172 19.5255 6.87565 19.6156 6.69775 19.7484C6.51984 19.8813 6.37486 20.0532 6.27401 20.251C6.06458 20.6543 5.99428 21.1156 6.07402 21.563C6.11405 21.9765 6.29758 22.3629 6.59277 22.6551C6.88796 22.9474 7.27617 23.1271 7.69001 23.163C7.76037 23.1633 7.83062 23.1576 7.90001 23.146C8.33606 23.0297 8.70908 22.747 8.93889 22.3586C9.16871 21.9702 9.23697 21.5072 9.12901 21.069C9.09343 20.6176 8.8816 20.1984 8.53933 19.902C8.19706 19.6055 7.75186 19.4557 7.30001 19.485ZM7.73601 22.154C7.46901 22.202 7.13601 21.897 7.05901 21.402C7.01653 21.1731 7.04952 20.9366 7.15301 20.728C7.18239 20.6653 7.22521 20.6099 7.27845 20.5656C7.33168 20.5214 7.39402 20.4894 7.46102 20.472C7.47732 20.4706 7.49371 20.4706 7.51002 20.472C7.75802 20.472 8.06301 20.764 8.13901 21.229C8.22301 21.72 7.99402 22.113 7.73902 22.154H7.73601ZM6.70001 25.042C6.84822 24.6645 6.86755 24.2486 6.75501 23.859C6.67732 23.4604 6.44619 23.1082 6.11139 22.8784C5.7766 22.6485 5.36493 22.5593 4.96501 22.63C4.58643 22.7747 4.27964 23.062 4.11045 23.4303C3.94126 23.7986 3.92315 24.2185 4.06002 24.6C4.16312 24.9927 4.39303 25.3404 4.71401 25.589C4.94835 25.7689 5.2346 25.8682 5.53001 25.872C5.63814 25.8722 5.74579 25.8578 5.85002 25.829C6.04255 25.7718 6.21934 25.671 6.36673 25.5346C6.51412 25.3981 6.62815 25.2296 6.70001 25.042ZM5.77501 24.662C5.76492 24.7106 5.74162 24.7555 5.70768 24.7917C5.67373 24.828 5.63045 24.8541 5.5826 24.8674C5.53474 24.8806 5.48417 24.8804 5.43643 24.8667C5.38869 24.8531 5.34564 24.8265 5.31202 24.79C5.16875 24.6745 5.06696 24.5155 5.02202 24.337C4.92202 23.972 5.05001 23.644 5.23101 23.594C5.24893 23.5891 5.26745 23.5868 5.28602 23.587C5.46402 23.587 5.70002 23.795 5.78602 24.124C5.84071 24.2997 5.83755 24.4883 5.77702 24.662H5.77501ZM11.045 18.874C10.827 18.9144 10.6211 19.0045 10.4434 19.1371C10.2657 19.2698 10.1208 19.4415 10.02 19.639C9.81497 20.0439 9.74389 20.5035 9.81705 20.9514C9.8902 21.3993 10.1038 21.8124 10.427 22.131C10.6972 22.392 11.0564 22.5407 11.432 22.547C11.5027 22.5468 11.5732 22.5411 11.643 22.53C12.079 22.4133 12.4519 22.1303 12.6816 21.7418C12.9114 21.3534 12.9797 20.8903 12.872 20.452C12.8347 20.0025 12.6227 19.5856 12.2815 19.2906C11.9404 18.9956 11.4972 18.846 11.047 18.874H11.045ZM11.481 21.542C11.4121 21.5473 11.3429 21.5372 11.2784 21.5125C11.2139 21.4878 11.1557 21.449 11.108 21.399C10.9475 21.2314 10.8416 21.0191 10.8041 20.7901C10.7666 20.561 10.7994 20.326 10.898 20.116C10.9274 20.0532 10.9703 19.9978 11.0238 19.9537C11.0772 19.9096 11.1398 19.8779 11.207 19.861C11.223 19.8595 11.239 19.8595 11.255 19.861C11.503 19.861 11.809 20.153 11.884 20.617C11.967 21.109 11.739 21.5 11.483 21.542H11.481ZM14.261 21.112C14.0602 21.1266 13.8656 21.1874 13.6921 21.2895C13.5187 21.3917 13.3711 21.5325 13.261 21.701C13.0401 22.0406 12.933 22.4416 12.9551 22.8461C12.9772 23.2506 13.1274 23.6375 13.384 23.951C13.5054 24.0975 13.6569 24.216 13.8283 24.2985C13.9997 24.381 14.1868 24.4255 14.377 24.429H14.442C14.6428 24.4144 14.8375 24.3536 15.0109 24.2515C15.1844 24.1493 15.3319 24.0085 15.442 23.84C15.6629 23.5004 15.77 23.0994 15.7479 22.6949C15.7258 22.2904 15.5756 21.9035 15.319 21.59C15.1906 21.4357 15.0288 21.3125 14.8459 21.2297C14.663 21.1469 14.4637 21.1067 14.263 21.112H14.261ZM14.62 23.27C14.5951 23.3117 14.5614 23.3474 14.5214 23.3749C14.4814 23.4023 14.4359 23.4208 14.388 23.429C14.3394 23.4266 14.2919 23.4135 14.249 23.3905C14.2061 23.3674 14.1689 23.3352 14.14 23.296C14.0284 23.1504 13.9633 22.9745 13.9531 22.7913C13.943 22.6081 13.9882 22.4261 14.083 22.269C14.1081 22.2275 14.1418 22.1918 14.1818 22.1644C14.2218 22.137 14.2672 22.1184 14.315 22.11H14.327C14.3733 22.1149 14.4182 22.1293 14.4587 22.1521C14.4993 22.175 14.5348 22.2059 14.563 22.243C14.6774 22.3853 14.7429 22.5606 14.75 22.743C14.765 22.9279 14.7201 23.1126 14.622 23.27H14.62ZM13.477 24.975C13.2793 24.8618 13.096 24.7251 12.931 24.568C11.868 23.363 10.812 22.842 9.80001 23C8.78801 23.158 7.95401 24 7.32701 25.481C7.22152 25.6829 7.09154 25.871 6.94001 26.041C6.53956 26.4063 6.27681 26.8982 6.1958 27.4341C6.11478 27.9701 6.22042 28.5176 6.49501 28.985C6.66519 29.3566 6.93055 29.6766 7.26421 29.9126C7.59787 30.1486 7.98797 30.2923 8.39502 30.329C8.43802 30.329 8.48102 30.329 8.52302 30.329C8.80981 30.3362 9.09447 30.278 9.35541 30.1588C9.61635 30.0396 9.84671 29.8625 10.029 29.641C10.1051 29.4993 10.2178 29.3806 10.3553 29.2973C10.4929 29.2139 10.6502 29.1689 10.811 29.167C10.9636 29.1173 11.1269 29.1096 11.2835 29.1448C11.4401 29.18 11.5843 29.2568 11.701 29.367C11.9892 29.5584 12.3292 29.6568 12.675 29.649C12.9471 29.6488 13.2166 29.5965 13.469 29.495C13.8424 29.3301 14.1657 29.0697 14.4062 28.74C14.6467 28.4102 14.796 28.0229 14.839 27.617C14.9489 27.0875 14.8738 26.5363 14.6263 26.0555C14.3788 25.5747 13.9738 25.1933 13.479 24.975H13.477ZM13.851 27.447C13.8325 27.6852 13.7524 27.9144 13.6184 28.1122C13.4845 28.31 13.3013 28.4695 13.087 28.575C12.9595 28.6326 12.8207 28.6612 12.6808 28.6586C12.5409 28.656 12.4033 28.6223 12.278 28.56C12.0547 28.3727 11.7902 28.2411 11.5061 28.1761C11.222 28.1111 10.9265 28.1145 10.644 28.186C10.3538 28.2086 10.073 28.2996 9.82461 28.4515C9.57625 28.6034 9.36736 28.8119 9.21501 29.06C9.11606 29.1587 8.99655 29.2343 8.86501 29.2815C8.73346 29.3287 8.59313 29.3463 8.45402 29.333C8.21744 29.3009 7.99326 29.2078 7.80342 29.063C7.61358 28.9183 7.46458 28.7267 7.37102 28.507C6.91201 27.669 7.25001 27.25 7.71701 26.67C7.93012 26.4294 8.10851 26.1601 8.24701 25.87C8.58001 25.084 9.14701 24.118 9.96001 23.986C10.773 23.854 11.617 24.586 12.183 25.227C12.4067 25.4566 12.6611 25.6542 12.939 25.814C13.568 26.218 14.022 26.509 13.853 27.447H13.851ZM21.586 9.05301C21.7348 9.05315 21.8826 9.02813 22.023 8.979C22.4317 8.78736 22.7489 8.44311 22.9065 8.02017C23.0641 7.59723 23.0496 7.12935 22.866 6.717C22.7197 6.28676 22.4357 5.91669 22.058 5.664C21.8766 5.53473 21.6667 5.45103 21.4461 5.41996C21.2255 5.3889 21.0007 5.41139 20.7906 5.48553C20.5805 5.55967 20.3914 5.68329 20.2392 5.84594C20.0869 6.00859 19.9761 6.20549 19.916 6.42C19.78 6.85368 19.7909 7.32015 19.947 7.747C20.0552 8.10577 20.2703 8.423 20.5635 8.65635C20.8567 8.8897 21.2141 9.02808 21.588 9.05301H21.586ZM20.865 6.734C20.8832 6.66807 20.9158 6.60699 20.9604 6.55512C21.005 6.50326 21.0606 6.4619 21.123 6.434C21.1587 6.42149 21.1962 6.41507 21.234 6.415C21.3349 6.41986 21.4324 6.45238 21.516 6.509C21.707 6.6424 21.8497 6.83391 21.923 7.055C22.09 7.529 21.934 7.955 21.69 8.04C21.446 8.125 21.058 7.893 20.89 7.419C20.8076 7.19934 20.7995 6.9587 20.867 6.734H20.865ZM19.951 12.106C20.1336 12.1067 20.3141 12.0664 20.479 11.988C20.6592 11.8978 20.8161 11.7672 20.9375 11.6064C21.0589 11.4456 21.1415 11.259 21.179 11.061C21.2538 10.663 21.1998 10.2515 21.0251 9.88616C20.8503 9.52083 20.5638 9.22061 20.207 9.02901C20.0294 8.93437 19.8324 8.8819 19.6312 8.87565C19.4301 8.86941 19.2302 8.90956 19.047 8.993C18.8954 9.06759 18.7601 9.17148 18.6489 9.29867C18.5376 9.42585 18.4527 9.57381 18.399 9.734C18.2527 10.1829 18.2886 10.6713 18.499 11.094C18.6699 11.4622 18.9579 11.7636 19.318 11.951C19.5146 12.0518 19.7321 12.1049 19.953 12.106H19.951ZM19.341 10.066C19.3627 9.99365 19.4114 9.93242 19.477 9.89501C19.5083 9.88053 19.5425 9.87335 19.577 9.874C19.6406 9.87661 19.7027 9.89335 19.759 9.92301C19.9176 10.015 20.0448 10.1526 20.124 10.318C20.2032 10.4834 20.2308 10.6688 20.203 10.85C20.1962 10.8982 20.1788 10.9443 20.1522 10.9851C20.1256 11.0259 20.0904 11.0603 20.049 11.086C20.0032 11.1016 19.9546 11.1071 19.9065 11.1023C19.8583 11.0975 19.8118 11.0824 19.77 11.058C19.6081 10.9676 19.4797 10.8273 19.404 10.658C19.3098 10.4754 19.288 10.264 19.343 10.066H19.341ZM24.333 7.538C24.5787 7.69991 24.8658 7.78773 25.16 7.791C25.3101 7.79099 25.4591 7.76598 25.601 7.717C25.8088 7.63861 25.9957 7.51353 26.1474 7.35141C26.2991 7.18929 26.4116 6.99448 26.476 6.782C26.6062 6.34747 26.595 5.88282 26.444 5.45507C26.293 5.02732 26.0101 4.65857 25.636 4.402C25.4547 4.27249 25.2449 4.18855 25.0243 4.1573C24.8037 4.12605 24.5788 4.14841 24.3687 4.22247C24.1585 4.29654 23.9693 4.42014 23.8171 4.58281C23.6648 4.74548 23.554 4.94243 23.494 5.157C23.3634 5.59157 23.3742 6.05641 23.525 6.4844C23.6758 6.91238 23.9588 7.28135 24.333 7.538ZM24.443 5.472C24.4612 5.40607 24.4938 5.34499 24.5384 5.29312C24.583 5.24126 24.6386 5.1999 24.701 5.172C24.7367 5.15949 24.7742 5.15307 24.812 5.153C24.9129 5.15786 25.0104 5.19038 25.094 5.247C25.2814 5.38385 25.4229 5.57421 25.5001 5.79304C25.5772 6.01188 25.5862 6.24893 25.526 6.473C25.5127 6.54148 25.4817 6.60528 25.4361 6.65807C25.3905 6.71087 25.3319 6.75082 25.2661 6.77397C25.2003 6.79712 25.1296 6.80265 25.061 6.79003C24.9924 6.77741 24.9283 6.74706 24.875 6.702C24.6842 6.56918 24.5417 6.3779 24.469 6.157C24.3863 5.93745 24.3778 5.69681 24.445 5.472H24.443ZM26.95 7.8C27.0134 8.15251 27.1921 8.47398 27.458 8.71397C27.7239 8.95396 28.0619 9.09888 28.419 9.12601C28.5113 9.12623 28.6033 9.11549 28.693 9.094C28.888 9.04396 29.0688 8.94975 29.2216 8.81866C29.3744 8.68757 29.4949 8.52312 29.574 8.33801C29.7365 7.96609 29.7716 7.55094 29.674 7.157C29.6617 6.95027 29.6043 6.74873 29.5059 6.56651C29.4075 6.3843 29.2704 6.22582 29.1042 6.10218C28.9381 5.97855 28.7469 5.89276 28.5441 5.85082C28.3413 5.80888 28.1317 5.81181 27.9302 5.8594C27.7286 5.907 27.5399 5.99811 27.3773 6.12634C27.2147 6.25457 27.0821 6.41682 26.9888 6.60172C26.8955 6.78662 26.8438 6.98969 26.8372 7.19668C26.8307 7.40368 26.8685 7.6096 26.95 7.8ZM28.16 6.836C28.347 6.79 28.613 7.019 28.699 7.387C28.7454 7.56511 28.7331 7.75342 28.664 7.924C28.6473 7.96991 28.6207 8.0116 28.5862 8.04615C28.5516 8.0807 28.5099 8.10727 28.464 8.124C28.289 8.177 28.012 7.942 27.924 7.574C27.836 7.206 27.977 6.876 28.16 6.833V6.836ZM29.644 12.171C29.6605 11.6299 29.4907 11.0994 29.1631 10.6684C28.8355 10.2374 28.3698 9.93192 27.844 9.80301C27.6293 9.72674 27.4247 9.6243 27.235 9.498C25.974 8.498 24.842 8.16901 23.875 8.51C22.908 8.85201 22.237 9.821 21.88 11.388C21.8094 11.6034 21.712 11.809 21.59 12C21.3372 12.3729 21.1877 12.806 21.1566 13.2554C21.1255 13.7048 21.2139 14.1544 21.4129 14.5586C21.6119 14.9627 21.9144 15.3069 22.2896 15.5563C22.6648 15.8056 23.0993 15.9511 23.549 15.978C23.8947 15.9777 24.2344 15.8878 24.5349 15.7171C24.8355 15.5464 25.0867 15.3007 25.264 15.004C25.314 14.8518 25.4039 14.7158 25.5244 14.6103C25.6449 14.5047 25.7916 14.4335 25.949 14.404C26.0907 14.3279 26.2503 14.2915 26.411 14.2985C26.5717 14.3056 26.7275 14.3558 26.862 14.444C27.0691 14.5381 27.2945 14.5853 27.522 14.582C27.9115 14.5784 28.2924 14.4666 28.622 14.259C28.9612 14.0312 29.2343 13.7179 29.4138 13.3507C29.5932 12.9836 29.6726 12.5756 29.644 12.168V12.171ZM28.09 13.413C27.9744 13.492 27.8426 13.5444 27.7043 13.5664C27.5659 13.5883 27.4245 13.5793 27.29 13.54C27.0369 13.3956 26.7532 13.3131 26.4621 13.2992C26.171 13.2853 25.8808 13.3404 25.615 13.46C25.3333 13.5333 25.073 13.6723 24.8554 13.8656C24.6378 14.0589 24.4691 14.301 24.363 14.572C24.2826 14.6857 24.1783 14.7805 24.0573 14.8496C23.9364 14.9187 23.8018 14.9605 23.663 14.972C23.4242 14.9839 23.1864 14.9326 22.9737 14.8234C22.7609 14.7142 22.5807 14.551 22.451 14.35C21.851 13.607 22.111 13.135 22.469 12.482C22.6356 12.2083 22.7635 11.9128 22.849 11.604C23.039 10.771 23.428 9.721 24.203 9.447C24.975 9.171 25.939 9.74701 26.61 10.277C26.8707 10.4631 27.1557 10.6125 27.457 10.721C28.146 11.006 28.644 11.211 28.644 12.165C28.6681 12.4032 28.6296 12.6436 28.5325 12.8624C28.4353 13.0813 28.2828 13.271 28.09 13.413ZM3.77101 5.426C3.99559 5.4272 4.21681 5.37147 4.41401 5.264C4.60645 5.15315 4.77083 4.99955 4.89446 4.81506C5.01809 4.63057 5.09765 4.42014 5.12701 4.2C5.18944 3.75143 5.10302 3.29476 4.88101 2.9C4.69629 2.4883 4.3575 2.16544 3.93739 2.00072C3.51728 1.836 3.04934 1.84257 2.63401 2.019C2.26153 2.27389 2.00394 2.66476 1.91661 3.10757C1.82928 3.55039 1.91919 4.00978 2.16701 4.387C2.31875 4.68645 2.54712 4.94035 2.82887 5.12285C3.11063 5.30536 3.4357 5.40996 3.77101 5.426ZM3.11501 2.892C3.16693 2.86531 3.22465 2.85191 3.28301 2.853C3.43733 2.87183 3.58426 2.92987 3.70978 3.0216C3.83529 3.11333 3.93521 3.23569 4.00001 3.377C4.11606 3.57885 4.16343 3.81292 4.13502 4.044C4.1281 4.11283 4.10604 4.17927 4.07043 4.23857C4.03481 4.29787 3.98652 4.34856 3.92901 4.387C3.70401 4.508 3.28101 4.343 3.04001 3.903C2.79901 3.463 2.88801 3.017 3.11501 2.892ZM2.62801 5.607C2.43762 5.54205 2.23482 5.52188 2.03536 5.54807C1.83591 5.57425 1.64518 5.6461 1.47801 5.758C1.16771 6.02008 0.972832 6.39362 0.935419 6.79806C0.898005 7.20251 1.02105 7.60545 1.27801 7.92C1.50657 8.25525 1.83895 8.50612 2.22401 8.634C2.36478 8.67837 2.51142 8.70129 2.65902 8.702C2.91454 8.70446 3.16459 8.62798 3.37501 8.483C3.6851 8.22078 3.8798 7.84728 3.91721 7.44291C3.95462 7.03854 3.83173 6.63566 3.57501 6.321C3.34703 5.98479 3.01398 5.73369 2.62801 5.607ZM2.80401 7.662C2.7614 7.68559 2.71405 7.69935 2.66544 7.70229C2.61682 7.70523 2.56816 7.69728 2.52301 7.679C2.34943 7.61774 2.20057 7.50153 2.09901 7.348C1.88301 7.038 1.89901 6.686 2.04901 6.578C2.09145 6.55032 2.14137 6.53636 2.19202 6.538C2.2389 6.53877 2.28541 6.54653 2.33001 6.561C2.50294 6.62297 2.65128 6.73905 2.75301 6.892C2.96901 7.2 2.95801 7.554 2.80001 7.662H2.80401ZM6.66301 3.543C6.80163 3.58406 6.94544 3.60494 7.09001 3.605C7.31739 3.60624 7.54137 3.54982 7.74101 3.441C7.93335 3.33053 8.0977 3.17729 8.22133 2.99313C8.34497 2.80898 8.42458 2.59885 8.45402 2.379C8.51299 1.92899 8.42735 1.47187 8.20949 1.07371C7.99163 0.675555 7.65282 0.356974 7.24201 0.164004C7.04198 0.065955 6.82132 0.0174186 6.59861 0.0224848C6.3759 0.027551 6.15767 0.0860715 5.9623 0.193115C5.76694 0.300159 5.60016 0.45259 5.47603 0.637567C5.35189 0.822543 5.27403 1.03465 5.24901 1.256C5.18592 1.7046 5.27237 2.16148 5.49501 2.556C5.73876 3.02632 6.15864 3.38112 6.66301 3.543ZM6.44202 1.07C6.49433 1.04226 6.5528 1.02815 6.61202 1.029C6.69141 1.03063 6.76965 1.04832 6.84201 1.081C7.0494 1.18535 7.22021 1.35023 7.33182 1.5538C7.44342 1.75737 7.49057 1.99004 7.46701 2.221C7.46012 2.28995 7.43797 2.3565 7.40216 2.41583C7.36636 2.47515 7.3178 2.52577 7.26002 2.564C7.21106 2.58799 7.15783 2.60201 7.10342 2.60527C7.049 2.60854 6.99448 2.60097 6.94301 2.583C6.69577 2.49545 6.49144 2.31653 6.37201 2.083C6.25604 1.88113 6.20867 1.64709 6.23702 1.416C6.24332 1.34672 6.26499 1.27971 6.30045 1.21986C6.33592 1.16001 6.38428 1.10881 6.44202 1.07ZM10.551 4.391C10.7095 4.39148 10.8665 4.36055 11.013 4.3C11.3717 4.10971 11.6413 3.78607 11.7637 3.39886C11.886 3.01164 11.8513 2.59186 11.667 2.23C11.5412 1.84341 11.2684 1.52182 10.9074 1.33471C10.5465 1.1476 10.1264 1.10999 9.73802 1.23C9.37928 1.4203 9.10969 1.74394 8.98736 2.13115C8.86502 2.51837 8.89973 2.93815 9.08401 3.3C9.19578 3.60493 9.39413 3.87059 9.65473 4.06439C9.91532 4.25819 10.2268 4.37171 10.551 4.391ZM10.122 2.157C10.295 2.084 10.599 2.264 10.744 2.613C10.889 2.962 10.803 3.304 10.629 3.376C10.455 3.448 10.152 3.269 10.007 2.92C9.86201 2.571 9.94901 2.229 10.122 2.157ZM9.63402 4.935C8.22801 4.153 7.05801 4.007 6.15801 4.501C5.25801 4.995 4.75102 6.058 4.65202 7.663C4.61994 7.8886 4.55981 8.10931 4.47301 8.32C4.21684 8.79769 4.13267 9.34892 4.23463 9.88129C4.33659 10.4137 4.61847 10.8948 5.03301 11.244C5.48285 11.686 6.08361 11.9408 6.71401 11.957C6.90194 11.9571 7.08901 11.9315 7.27002 11.881C7.56837 11.803 7.8435 11.6542 8.07208 11.4473C8.30066 11.2403 8.47593 10.9812 8.58301 10.692C8.6069 10.5329 8.67331 10.3833 8.77523 10.2588C8.87714 10.1344 9.01078 10.0398 9.16201 9.985C9.28952 9.88709 9.44112 9.82546 9.60078 9.80662C9.76044 9.78779 9.92222 9.81245 10.069 9.87801C10.3707 9.94343 10.6837 9.93504 10.9814 9.85356C11.2791 9.77208 11.5527 9.61992 11.779 9.41C12.0763 9.13048 12.2946 8.7775 12.4118 8.38668C12.5291 7.99586 12.5413 7.58101 12.447 7.184C12.3755 6.64649 12.1215 6.14985 11.7276 5.77721C11.3337 5.40458 10.8237 5.17856 10.283 5.137C10.0593 5.09638 9.8413 5.02855 9.63402 4.935ZM11.46 7.345C11.5215 7.57561 11.522 7.81822 11.4615 8.04909C11.401 8.27995 11.2816 8.49115 11.115 8.662C11.014 8.75896 10.8927 8.83216 10.7598 8.87628C10.627 8.92039 10.4859 8.93431 10.347 8.917C10.0741 8.81522 9.78097 8.77947 9.49159 8.81267C9.20221 8.84586 8.92479 8.94707 8.68201 9.108C8.41546 9.22564 8.18059 9.40479 7.99668 9.63077C7.81277 9.85675 7.68505 10.1231 7.62401 10.408C7.56316 10.534 7.47537 10.645 7.36685 10.7333C7.25833 10.8217 7.13173 10.885 6.99602 10.919C6.7615 10.9672 6.5185 10.9539 6.29067 10.8803C6.06285 10.8067 5.85797 10.6753 5.69601 10.499C4.98501 9.863 5.16401 9.355 5.41201 8.653C5.5329 8.35609 5.61166 8.04373 5.64601 7.725C5.69901 6.872 5.91301 5.773 6.63502 5.378C7.05814 5.25154 7.50479 5.22464 7.94004 5.29941C8.37528 5.37418 8.78734 5.54858 9.14401 5.809C9.43153 5.95008 9.73705 6.05102 10.052 6.109C10.782 6.28 11.306 6.4 11.46 7.345Z" fill="black"/>
</svg>
